<svg id="Black_Icon" data-name="Black Icon" xmlns="http://www.w3.org/2000/svg" viewBox="0 0 360.65 373.43"><title>JH_Icons_SVG</title><path d="M186.8,377.06c0,28.74,9.18,20.55,24.9,30.25,7.79,4.8,5.23,19.41,31.76,19.41,29.58,0,25.63-13,31.49-16.81,11-7.11,28.48-7.49,28.28-32.82" transform="translate(-61.74 -63.28)" fill="none" stroke="white" stroke-miterlimit="10" stroke-width="12"/><path d="M106.66,201.71c-4.59-22.93-39.44,96.3.91,124.73,0,0,39.75-12.53,59.16,47.7,5.89,3.2,78.27,12.84,68.79-35.77-5.09-5-21.51-20.62-21.51-20.62l-12.13-24.94h9.8s-2.3-30.57-50.45-32.86c-19.72-5.54-28.43-31.65-28.43-31.65S107.57,222.34,106.66,201.71Z" transform="translate(-61.74 -63.28)" fill="none" stroke="white" stroke-miterlimit="10" stroke-width="12"/><path d="M160,123.62c51.36-21.32,124.28-21.78,161,0l35.75-37.51c39.13-23.24,50-16.36,50,32.71,16.05,20.64-5.31,49.58-18.13,66.11-8.33,10.73-23.91,18.34-34.38,17.25C234.38,204,256.61,293,256.61,293H228.1s14.41-88.9-102.54-89.59c-10,.64-20.49-4.6-29.47-15.07-13.58-15.83-32.25-40.18-20.78-64.49,3.85-55.24,9.17-47,40.67-38.55C141.51,92.17,160,123.62,160,123.62Z" transform="translate(-61.74 -63.28)" fill="none" stroke="white" stroke-miterlimit="10" stroke-width="12"/><path d="M377.47,201.71c4.58-22.93,39.43,96.3-.92,124.73,0,0-39.75-12.53-59.16,47.7-5.89,3.2-78.27,12.84-68.79-35.77,5.09-5,21.51-20.62,21.51-20.62l12.13-24.94h-9.79s2.29-30.57,50.44-32.86c19.72-5.54,28.44-31.65,28.44-31.65S376.55,222.34,377.47,201.71Z" transform="translate(-61.74 -63.28)" fill="none" stroke="white" stroke-miterlimit="10" stroke-width="12"/></svg>